<svg xmlns="http://www.w3.org/2000/svg" viewBox="0 0 159.85 52.97"><defs><style>.cls-1{fill:#5f7470;}.cls-2{fill:#889696;}</style></defs><title>Kailogomobile</title><g id="Layer_2" data-name="Layer 2"><g id="Layer_1-2" data-name="Layer 1"><path class="cls-1" d="M22.61,41.72V7.08H26V27.21L45.11,7h3.75L34.71,22.27,49.6,41.72H45.74L32.52,24.33,26,31.07V41.72Z" transform="translate(-1.44 -7.03)"/><path class="cls-1" d="M63.6,7.08,76,37.48,88.34,7.08H91.9L77.56,41.72H74.43L60,7.08Z" transform="translate(-1.44 -7.03)"/><path class="cls-1" d="M106.64,41.72V7.08H118.4a17,17,0,0,1,9.2,2.31,14.61,14.61,0,0,1,5.53,6.25A20.09,20.09,0,0,1,135,24.35a19.65,19.65,0,0,1-2,9.17,14.53,14.53,0,0,1-5.75,6,17.3,17.3,0,0,1-8.81,2.15Zm24.93-17.37A17,17,0,0,0,130,17a11.86,11.86,0,0,0-4.47-5.05,13.26,13.26,0,0,0-7.17-1.83h-8.35V38.7h8.35a13,13,0,0,0,7.22-1.91,12.1,12.1,0,0,0,4.44-5.15A17,17,0,0,0,131.57,24.35Z" transform="translate(-1.44 -7.03)"/><path class="cls-2" d="M1.44,59.92V48.43H6.2a3,3,0,0,1,1.36.31,3.26,3.26,0,0,1,1.08.83,4.12,4.12,0,0,1,.71,1.17A3.47,3.47,0,0,1,9.61,52a4,4,0,0,1-.41,1.77A3.46,3.46,0,0,1,8,55.16a3,3,0,0,1-1.75.52H2.57v4.24Zm1.13-5.24H6.25a1.94,1.94,0,0,0,1.18-.38,2.4,2.4,0,0,0,.77-1A3,3,0,0,0,8.48,52a2.66,2.66,0,0,0-.33-1.31,2.45,2.45,0,0,0-.85-.95,2,2,0,0,0-1.15-.35H2.57Z" transform="translate(-1.44 -7.03)"/><path class="cls-2" d="M24.63,48.43V59.92H23.51V54.55H16.7v5.37H15.57V48.43H16.7v5.11h6.81V48.43Z" transform="translate(-1.44 -7.03)"/><path class="cls-2" d="M36.19,60a4.84,4.84,0,0,1-2.2-.49,5.31,5.31,0,0,1-1.7-1.31,6.45,6.45,0,0,1-1.1-1.88,6.09,6.09,0,0,1-.38-2.15,6,6,0,0,1,.4-2.19,6.13,6.13,0,0,1,1.14-1.86,5.72,5.72,0,0,1,1.72-1.29,5.05,5.05,0,0,1,4.34,0,5.39,5.39,0,0,1,1.69,1.34,6.42,6.42,0,0,1,1.09,1.88,6.08,6.08,0,0,1,0,4.31A5.9,5.9,0,0,1,40,58.24a5.15,5.15,0,0,1-1.71,1.29A5,5,0,0,1,36.19,60Zm-4.25-5.83A5.26,5.26,0,0,0,32.25,56a4.77,4.77,0,0,0,.87,1.54,4.35,4.35,0,0,0,1.35,1.06,3.69,3.69,0,0,0,1.72.4A3.79,3.79,0,0,0,38,58.57a4.25,4.25,0,0,0,1.35-1.1,5.2,5.2,0,0,0,.85-1.55,5.49,5.49,0,0,0,.29-1.75,5.15,5.15,0,0,0-.31-1.79,4.9,4.9,0,0,0-.88-1.54,4.24,4.24,0,0,0-1.35-1.07,4,4,0,0,0-3.47,0,4.3,4.3,0,0,0-1.35,1.09,5.08,5.08,0,0,0-.85,1.55A5.22,5.22,0,0,0,31.94,54.17Z" transform="translate(-1.44 -7.03)"/><path class="cls-2" d="M55.53,49.43h-4.1V59.92H50.3V49.43H46.21v-1h9.32Z" transform="translate(-1.44 -7.03)"/><path class="cls-2" d="M65.53,60a4.81,4.81,0,0,1-2.2-.49,5.21,5.21,0,0,1-1.7-1.31,6.24,6.24,0,0,1-1.1-1.88,6.1,6.1,0,0,1-.39-2.15,6,6,0,0,1,.4-2.19,6.13,6.13,0,0,1,1.14-1.86,5.76,5.76,0,0,1,1.73-1.29,5,5,0,0,1,4.33,0,5.28,5.28,0,0,1,1.69,1.34,6.45,6.45,0,0,1,1.1,1.88,6,6,0,0,1,0,4.31,6.06,6.06,0,0,1-1.13,1.86,5.3,5.3,0,0,1-1.72,1.29A5,5,0,0,1,65.53,60Zm-4.26-5.83A5.26,5.26,0,0,0,61.58,56a5,5,0,0,0,.87,1.54,4.35,4.35,0,0,0,1.35,1.06,3.73,3.73,0,0,0,1.73.4,3.79,3.79,0,0,0,1.77-.41,4.32,4.32,0,0,0,1.34-1.1,5,5,0,0,0,.85-1.55,5.22,5.22,0,0,0,.29-1.75,5.38,5.38,0,0,0-.3-1.79,4.93,4.93,0,0,0-.89-1.54,4.24,4.24,0,0,0-1.35-1.07,4,4,0,0,0-3.47,0,4.15,4.15,0,0,0-1.34,1.09,5.1,5.1,0,0,0-.86,1.55A5.22,5.22,0,0,0,61.27,54.17Z" transform="translate(-1.44 -7.03)"/><path class="cls-2" d="M81.72,60a4.83,4.83,0,0,1-2.13-.49,5.6,5.6,0,0,1-1.72-1.34,6.29,6.29,0,0,1-1.12-1.88,5.79,5.79,0,0,1-.4-2.13,6.06,6.06,0,0,1,.4-2.21,5.78,5.78,0,0,1,1.11-1.85,5.15,5.15,0,0,1,1.68-1.28,4.84,4.84,0,0,1,2.12-.47,4.91,4.91,0,0,1,2.76.7A4.35,4.35,0,0,1,86,50.86l-.87.58a3.62,3.62,0,0,0-1.47-1.57,4.3,4.3,0,0,0-2.06-.5,3.63,3.63,0,0,0-1.72.4,4.19,4.19,0,0,0-1.32,1.09,4.73,4.73,0,0,0-.83,1.53,5.67,5.67,0,0,0-.29,1.78A5.13,5.13,0,0,0,77.81,56a4.71,4.71,0,0,0,.92,1.54,4.37,4.37,0,0,0,1.38,1.05A3.91,3.91,0,0,0,81.8,59a4,4,0,0,0,2-.53,6.1,6.1,0,0,0,1.8-1.62V58A4.89,4.89,0,0,1,81.72,60Zm3.69-4.85H82.86v-.88h3.51v5.65h-1Z" transform="translate(-1.44 -7.03)"/><path class="cls-2" d="M92.76,59.92V48.43h4.85a2.93,2.93,0,0,1,1.36.31,3.47,3.47,0,0,1,1.08.83,4.12,4.12,0,0,1,.71,1.17A3.45,3.45,0,0,1,101,52a3.84,3.84,0,0,1-.32,1.55,3.25,3.25,0,0,1-.89,1.23,2.77,2.77,0,0,1-1.35.66l2.82,4.44H100l-2.7-4.24h-3.4v4.24Zm1.13-5.24h3.75a1.94,1.94,0,0,0,1.19-.38,2.36,2.36,0,0,0,.77-1A3,3,0,0,0,99.88,52a2.71,2.71,0,0,0-.32-1.29,2.66,2.66,0,0,0-.84-1,2,2,0,0,0-1.17-.37H93.89Z" transform="translate(-1.44 -7.03)"/><path class="cls-2" d="M110.9,48.43h.95l4.77,11.49h-1.19L114,56.33h-5.25l-1.44,3.59h-1.21Zm2.73,7-2.27-5.68-2.27,5.68Z" transform="translate(-1.44 -7.03)"/><path class="cls-2" d="M122.33,59.92V48.43h4.76a3,3,0,0,1,1.37.31,3.32,3.32,0,0,1,1.07.83,4.15,4.15,0,0,1,.72,1.17,3.45,3.45,0,0,1,.25,1.3,3.9,3.9,0,0,1-.41,1.77,3.44,3.44,0,0,1-1.15,1.35,3,3,0,0,1-1.75.52h-3.72v4.24Zm1.14-5.24h3.67a1.92,1.92,0,0,0,1.18-.38,2.42,2.42,0,0,0,.78-1,3.11,3.11,0,0,0,.27-1.29,2.76,2.76,0,0,0-.32-1.31,2.61,2.61,0,0,0-.85-.95,2.08,2.08,0,0,0-1.16-.35h-3.57Z" transform="translate(-1.44 -7.03)"/><path class="cls-2" d="M145.52,48.43V59.92H144.4V54.55h-6.81v5.37h-1.13V48.43h1.13v5.11h6.81V48.43Z" transform="translate(-1.44 -7.03)"/><path class="cls-2" d="M152.53,48.43l3.75,6.18,3.79-6.18h1.22l-4.44,7.22v4.27h-1.14V55.61l-4.43-7.18Z" transform="translate(-1.44 -7.03)"/></g></g></svg>