<svg xmlns="http://www.w3.org/2000/svg" viewBox="0 0 390.79 66.47"><defs><style>.cls-1{fill:#5f7470;}.cls-2{fill:#889696;}</style></defs><title>Kailogodesktop</title><g id="Layer_2" data-name="Layer 2"><g id="Layer_1-2" data-name="Layer 1"><path class="cls-1" d="M4.3,41.28V7H7.68V26.92L26.56,7h3.71L16.27,22,31,41.28H27.18L14.1,24.07,7.68,30.74V41.28Z" transform="translate(-4.3 -6.04)"/><path class="cls-1" d="M42.3,34.09A6.35,6.35,0,0,1,43.65,30a8.7,8.7,0,0,1,3.74-2.63,15,15,0,0,1,5.53-.94,26.78,26.78,0,0,1,3.81.29,16.73,16.73,0,0,1,3.53.87V25.5a6.81,6.81,0,0,0-1.88-5,7.08,7.08,0,0,0-5.22-1.87,11,11,0,0,0-4,.75,20,20,0,0,0-4.08,2.19l-1.26-2.31a21.27,21.27,0,0,1,4.83-2.54,14.36,14.36,0,0,1,4.83-.84,10.05,10.05,0,0,1,7.34,2.64,9.73,9.73,0,0,1,2.7,7.29V37.33a1.44,1.44,0,0,0,.29,1,1.42,1.42,0,0,0,.92.36v2.6l-.92.1a1.83,1.83,0,0,1-.58,0,2.43,2.43,0,0,1-1.83-.77,2.57,2.57,0,0,1-.68-1.55l-.05-1.83a11,11,0,0,1-4.39,3.35,13.6,13.6,0,0,1-5.51,1.19,9.18,9.18,0,0,1-4.36-1,7.68,7.68,0,0,1-3-2.78A7.21,7.21,0,0,1,42.3,34.09ZM59.15,36A6.86,6.86,0,0,0,60,34.71a2.69,2.69,0,0,0,.29-1.1V30A20.46,20.46,0,0,0,56.85,29a18.3,18.3,0,0,0-3.54-.34,10.41,10.41,0,0,0-5.7,1.39,4.27,4.27,0,0,0-2.17,3.78,5.09,5.09,0,0,0,.72,2.61,5.64,5.64,0,0,0,2.12,2,6.67,6.67,0,0,0,3.29.79A10.93,10.93,0,0,0,56,38.35,8,8,0,0,0,59.15,36Z" transform="translate(-4.3 -6.04)"/><path class="cls-1" d="M80.3,10.86V6h3.28v4.82Zm0,30.42V16.13h3.28V41.28Z" transform="translate(-4.3 -6.04)"/><path class="cls-1" d="M128.63,41.28,118.44,16.22h3.43L130.46,38l8.65-21.79h3.23L132.15,41.28Z" transform="translate(-4.3 -6.04)"/><path class="cls-1" d="M166.44,41.77a12.13,12.13,0,0,1-5.05-1,12,12,0,0,1-4-2.83,13.3,13.3,0,0,1-3.5-9,13.41,13.41,0,0,1,.92-5,13,13,0,0,1,2.6-4.13,12.44,12.44,0,0,1,4-2.83,12,12,0,0,1,5-1,11.82,11.82,0,0,1,5,1,12.54,12.54,0,0,1,4,2.83A13.16,13.16,0,0,1,178,23.83a13.61,13.61,0,0,1,.91,5,13.17,13.17,0,0,1-3.5,9,12.09,12.09,0,0,1-8.95,3.87ZM157.26,28.9A10.49,10.49,0,0,0,158.49,34a9.63,9.63,0,0,0,3.31,3.59,8.57,8.57,0,0,0,9.17,0,9.88,9.88,0,0,0,3.34-3.67,10.65,10.65,0,0,0,1.25-5.11,10.39,10.39,0,0,0-1.25-5A9.86,9.86,0,0,0,171,20.08a8.22,8.22,0,0,0-4.58-1.35,8,8,0,0,0-4.59,1.4,10.08,10.08,0,0,0-3.31,3.66A10.58,10.58,0,0,0,157.26,28.9Z" transform="translate(-4.3 -6.04)"/><path class="cls-1" d="M215.2,41.28h-3.28v-14c0-2.94-.44-5.09-1.3-6.45a4.52,4.52,0,0,0-4.11-2,8.38,8.38,0,0,0-3.81.94,10.7,10.7,0,0,0-3.31,2.53,9.58,9.58,0,0,0-2,3.67V41.28h-3.29V16.22h3v5.71a11.23,11.23,0,0,1,2.65-3.19,12.69,12.69,0,0,1,3.72-2.13,12.11,12.11,0,0,1,4.3-.77,7.33,7.33,0,0,1,3.52.77,5.93,5.93,0,0,1,2.32,2.18,10.17,10.17,0,0,1,1.26,3.41,24.1,24.1,0,0,1,.38,4.44Z" transform="translate(-4.3 -6.04)"/><path class="cls-1" d="M254.5,41.28V7h11.64a16.86,16.86,0,0,1,9.1,2.29,14.41,14.41,0,0,1,5.48,6.19,19.81,19.81,0,0,1,1.84,8.61,19.39,19.39,0,0,1-2,9.08,14.36,14.36,0,0,1-5.69,6,17.17,17.17,0,0,1-8.72,2.12Zm24.68-17.19a16.82,16.82,0,0,0-1.52-7.29,11.71,11.71,0,0,0-4.42-5,13.12,13.12,0,0,0-7.1-1.82h-8.26v28.3h8.26a12.9,12.9,0,0,0,7.15-1.88,12,12,0,0,0,4.39-5.1A16.83,16.83,0,0,0,279.18,24.09Z" transform="translate(-4.3 -6.04)"/><path class="cls-1" d="M308.87,41.77a12.27,12.27,0,0,1-9-3.88,13.32,13.32,0,0,1-3.57-9.21,13,13,0,0,1,1.62-6.42,12.5,12.5,0,0,1,4.46-4.67,12.09,12.09,0,0,1,6.47-1.75,11.83,11.83,0,0,1,6.5,1.77,12.67,12.67,0,0,1,4.37,4.68,13,13,0,0,1,1.59,6.35v.74a2.09,2.09,0,0,1,0,.56H299.7a11,11,0,0,0,1.52,4.78A9.68,9.68,0,0,0,304.55,38,8.55,8.55,0,0,0,309,39.26,9.24,9.24,0,0,0,313.68,38a6.94,6.94,0,0,0,3.06-3.28l2.85.77a9.3,9.3,0,0,1-2.36,3.23A11.33,11.33,0,0,1,313.48,41,13.18,13.18,0,0,1,308.87,41.77Zm-9.27-14.2h18.59a10.34,10.34,0,0,0-1.47-4.78,9.25,9.25,0,0,0-3.33-3.22,9,9,0,0,0-4.52-1.17,8.82,8.82,0,0,0-4.49,1.17,9.25,9.25,0,0,0-3.3,3.25A10.26,10.26,0,0,0,299.6,27.57Z" transform="translate(-4.3 -6.04)"/><path class="cls-1" d="M357.16,41.28h-3.29v-14q0-4.21-1.49-6.35a4.92,4.92,0,0,0-4.3-2.14,7.84,7.84,0,0,0-3.65.94,10.55,10.55,0,0,0-3.18,2.53,9.52,9.52,0,0,0-2,3.67V41.28H336V6h3.28V21.93a11.65,11.65,0,0,1,4.18-4.44,10.7,10.7,0,0,1,5.72-1.65,8,8,0,0,1,3.69.77,6.16,6.16,0,0,1,2.47,2.23,10.55,10.55,0,0,1,1.37,3.41,20.13,20.13,0,0,1,.44,4.39Z" transform="translate(-4.3 -6.04)"/><path class="cls-1" d="M395,41.28h-3.28v-14q0-4.41-1.3-6.45a4.52,4.52,0,0,0-4.11-2,8.38,8.38,0,0,0-3.81.94,10.7,10.7,0,0,0-3.31,2.53,9.71,9.71,0,0,0-2,3.67V41.28h-3.29V16.22h3v5.71a11.23,11.23,0,0,1,2.65-3.19,12.69,12.69,0,0,1,3.72-2.13,12.15,12.15,0,0,1,4.3-.77,7.33,7.33,0,0,1,3.52.77,5.93,5.93,0,0,1,2.32,2.18,10.17,10.17,0,0,1,1.26,3.41,24.1,24.1,0,0,1,.38,4.44Z" transform="translate(-4.3 -6.04)"/><path class="cls-2" d="M118.9,72.36V52.51h8.22a5.21,5.21,0,0,1,2.36.54,5.68,5.68,0,0,1,1.86,1.44,7.15,7.15,0,0,1,1.23,2,5.9,5.9,0,0,1,.45,2.25,6.75,6.75,0,0,1-.72,3.06,6,6,0,0,1-2,2.33,5.1,5.1,0,0,1-3,.9h-6.43v7.32Zm2-9.06h6.34a3.33,3.33,0,0,0,2-.64A4.23,4.23,0,0,0,130.58,61a5.27,5.27,0,0,0,.48-2.24,4.74,4.74,0,0,0-.56-2.27A4.38,4.38,0,0,0,129,54.85a3.54,3.54,0,0,0-2-.6h-6.17Z" transform="translate(-4.3 -6.04)"/><path class="cls-2" d="M159,52.51V72.36H157V63.08H145.26v9.28h-2V52.51h2v8.84H157V52.51Z" transform="translate(-4.3 -6.04)"/><path class="cls-2" d="M178.94,72.5a8.51,8.51,0,0,1-3.8-.84,9,9,0,0,1-2.93-2.28,10.5,10.5,0,0,1,.1-13.94,9.58,9.58,0,0,1,3-2.24,8.38,8.38,0,0,1,3.69-.82,8.2,8.2,0,0,1,3.8.86,9.32,9.32,0,0,1,2.93,2.32,11.17,11.17,0,0,1,1.88,3.24,10.47,10.47,0,0,1,0,7.45,10.25,10.25,0,0,1-2,3.22,9.26,9.26,0,0,1-3,2.22A8.45,8.45,0,0,1,178.94,72.5Zm-7.35-10.06a9.38,9.38,0,0,0,.53,3.12,8.66,8.66,0,0,0,1.51,2.65A7.52,7.52,0,0,0,176,70.06a6.91,6.91,0,0,0,6,0,7.6,7.6,0,0,0,2.32-1.9,8.57,8.57,0,0,0,1.46-2.67,9.26,9.26,0,0,0,0-6.12,8.67,8.67,0,0,0-1.53-2.66,7.42,7.42,0,0,0-2.33-1.85,6.68,6.68,0,0,0-3-.67,6.6,6.6,0,0,0-3,.7,7.32,7.32,0,0,0-2.32,1.89,8.71,8.71,0,0,0-1.48,2.67A9,9,0,0,0,171.59,62.44Z" transform="translate(-4.3 -6.04)"/><path class="cls-2" d="M212.35,54.25h-7.07V72.36h-2V54.25h-7.07V52.51h16.1Z" transform="translate(-4.3 -6.04)"/><path class="cls-2" d="M229.63,72.5a8.52,8.52,0,0,1-3.81-.84,9,9,0,0,1-2.93-2.28,10.75,10.75,0,0,1-2.57-6.94,10.32,10.32,0,0,1,.7-3.79,10.18,10.18,0,0,1,2-3.21,9.58,9.58,0,0,1,3-2.24,8.38,8.38,0,0,1,3.69-.82,8.2,8.2,0,0,1,3.8.86,9.32,9.32,0,0,1,2.93,2.32,11,11,0,0,1,1.88,3.24,10.47,10.47,0,0,1,0,7.45,10.25,10.25,0,0,1-1.95,3.22,9.26,9.26,0,0,1-3,2.22A8.43,8.43,0,0,1,229.63,72.5Zm-7.36-10.06a9.38,9.38,0,0,0,.53,3.12,8.66,8.66,0,0,0,1.51,2.65,7.52,7.52,0,0,0,2.34,1.85,6.91,6.91,0,0,0,6,0,7.6,7.6,0,0,0,2.32-1.9,8.57,8.57,0,0,0,1.46-2.67,9.26,9.26,0,0,0,0-6.12,8.67,8.67,0,0,0-1.53-2.66,7.42,7.42,0,0,0-2.33-1.85,6.91,6.91,0,0,0-6,0,7.32,7.32,0,0,0-2.32,1.89,8.71,8.71,0,0,0-1.48,2.67A9,9,0,0,0,222.27,62.44Z" transform="translate(-4.3 -6.04)"/><path class="cls-2" d="M257.61,72.5a8.07,8.07,0,0,1-3.69-.85,9.53,9.53,0,0,1-3-2.31A11.12,11.12,0,0,1,249,66.1a10.14,10.14,0,0,1-.68-3.69,10.51,10.51,0,0,1,2.6-7,9.07,9.07,0,0,1,2.9-2.2,8.33,8.33,0,0,1,3.67-.81,8.61,8.61,0,0,1,4.77,1.2,7.74,7.74,0,0,1,2.8,3.13l-1.51,1A6.2,6.2,0,0,0,261,55a7.4,7.4,0,0,0-3.55-.86,6.38,6.38,0,0,0-3,.69,7.27,7.27,0,0,0-2.28,1.88,8.51,8.51,0,0,0-1.44,2.65,10,10,0,0,0-.49,3.08,9,9,0,0,0,.56,3.17,8.36,8.36,0,0,0,1.6,2.66,7.39,7.39,0,0,0,2.39,1.81,6.55,6.55,0,0,0,2.92.66,6.92,6.92,0,0,0,3.44-.91,10.54,10.54,0,0,0,3.1-2.81v2.07A8.42,8.42,0,0,1,257.61,72.5ZM264,64.12h-4.42V62.61h6.07v9.75H264Z" transform="translate(-4.3 -6.04)"/><path class="cls-2" d="M276.67,72.36V52.51h8.39a5.14,5.14,0,0,1,2.35.54,6,6,0,0,1,1.85,1.44,6.33,6.33,0,0,1,1.23,2,6.09,6.09,0,0,1,.44,2.25,6.56,6.56,0,0,1-.55,2.68,5.87,5.87,0,0,1-1.53,2.13,5.09,5.09,0,0,1-2.34,1.14l4.87,7.66h-2.21L284.5,65h-5.87v7.32Zm2-9.06h6.48a3.29,3.29,0,0,0,2-.64A4.26,4.26,0,0,0,288.5,61a5.43,5.43,0,0,0,.47-2.22,4.67,4.67,0,0,0-2-3.87,3.45,3.45,0,0,0-2-.63h-6.32Z" transform="translate(-4.3 -6.04)"/><path class="cls-2" d="M308,52.51h1.65l8.24,19.85h-2.07l-2.48-6.2h-9.07l-2.48,6.2h-2.09Zm4.73,12.11-3.92-9.81-3.92,9.81Z" transform="translate(-4.3 -6.04)"/><path class="cls-2" d="M327.77,72.36V52.51H336a5.18,5.18,0,0,1,2.36.54,5.68,5.68,0,0,1,1.86,1.44,7.15,7.15,0,0,1,1.23,2,5.9,5.9,0,0,1,.45,2.25,6.87,6.87,0,0,1-.71,3.06,6.12,6.12,0,0,1-2,2.33,5.15,5.15,0,0,1-3,.9h-6.43v7.32Zm2-9.06h6.34a3.29,3.29,0,0,0,2-.64A4.34,4.34,0,0,0,339.46,61a5.42,5.42,0,0,0,.47-2.24,4.63,4.63,0,0,0-.56-2.27,4.38,4.38,0,0,0-1.47-1.63,3.53,3.53,0,0,0-2-.6h-6.18Z" transform="translate(-4.3 -6.04)"/><path class="cls-2" d="M367.83,52.51V72.36H365.9V63.08H354.13v9.28h-1.95V52.51h1.95v8.84H365.9V52.51Z" transform="translate(-4.3 -6.04)"/><path class="cls-2" d="M379.93,52.51l6.49,10.68L393,52.51h2.12L387.4,65v7.38h-2V64.93l-7.66-12.42Z" transform="translate(-4.3 -6.04)"/></g></g></svg>